<mxfile host="app.diagrams.net" modified="2022-05-26T12:02:41.523Z" agent="5.0 (X11; Linux x86_64) AppleWebKit/537.36 (KHTML, like Gecko) Chrome/100.0.4896.75 Safari/537.36" etag="Y7dE4CZe9C0upbmf6mgn" version="18.1.2" type="github" pages="2">
  <diagram id="lFxsmAKlkC_CHH3mUBWc" name="Page-1">
    <mxGraphModel dx="1958" dy="418" grid="1" gridSize="10" guides="1" tooltips="1" connect="1" arrows="1" fold="1" page="1" pageScale="1" pageWidth="850" pageHeight="1100" math="0" shadow="0">
      <root>
        <mxCell id="0" />
        <mxCell id="1" parent="0" />
        <mxCell id="W_ZTkigPUNPTzvWaKMQf-11" value="" style="edgeStyle=orthogonalEdgeStyle;rounded=0;orthogonalLoop=1;jettySize=auto;html=1;" parent="1" source="W_ZTkigPUNPTzvWaKMQf-3" target="W_ZTkigPUNPTzvWaKMQf-4" edge="1">
          <mxGeometry relative="1" as="geometry" />
        </mxCell>
        <mxCell id="W_ZTkigPUNPTzvWaKMQf-3" value="Create Policy&amp;nbsp;" style="text;html=1;align=center;verticalAlign=middle;resizable=0;points=[];autosize=1;strokeColor=none;fillColor=none;" parent="1" vertex="1">
          <mxGeometry x="15" y="150" width="90" height="20" as="geometry" />
        </mxCell>
        <mxCell id="W_ZTkigPUNPTzvWaKMQf-9" value="" style="edgeStyle=orthogonalEdgeStyle;rounded=0;orthogonalLoop=1;jettySize=auto;html=1;" parent="1" source="W_ZTkigPUNPTzvWaKMQf-4" target="W_ZTkigPUNPTzvWaKMQf-5" edge="1">
          <mxGeometry relative="1" as="geometry" />
        </mxCell>
        <mxCell id="W_ZTkigPUNPTzvWaKMQf-4" value="Attach To User/Gourp/Principal" style="text;html=1;align=center;verticalAlign=middle;resizable=0;points=[];autosize=1;strokeColor=none;fillColor=none;" parent="1" vertex="1">
          <mxGeometry x="135" y="150" width="180" height="20" as="geometry" />
        </mxCell>
        <mxCell id="W_ZTkigPUNPTzvWaKMQf-10" value="" style="edgeStyle=orthogonalEdgeStyle;rounded=0;orthogonalLoop=1;jettySize=auto;html=1;" parent="1" source="W_ZTkigPUNPTzvWaKMQf-5" target="W_ZTkigPUNPTzvWaKMQf-6" edge="1">
          <mxGeometry relative="1" as="geometry" />
        </mxCell>
        <mxCell id="W_ZTkigPUNPTzvWaKMQf-5" value="Effect&amp;nbsp;" style="text;html=1;align=center;verticalAlign=middle;resizable=0;points=[];autosize=1;strokeColor=none;fillColor=none;" parent="1" vertex="1">
          <mxGeometry x="385" y="150" width="50" height="20" as="geometry" />
        </mxCell>
        <mxCell id="W_ZTkigPUNPTzvWaKMQf-12" style="edgeStyle=orthogonalEdgeStyle;rounded=0;orthogonalLoop=1;jettySize=auto;html=1;" parent="1" source="W_ZTkigPUNPTzvWaKMQf-6" target="W_ZTkigPUNPTzvWaKMQf-3" edge="1">
          <mxGeometry relative="1" as="geometry">
            <Array as="points">
              <mxPoint x="555" y="250" />
              <mxPoint x="60" y="250" />
            </Array>
          </mxGeometry>
        </mxCell>
        <mxCell id="W_ZTkigPUNPTzvWaKMQf-6" value="Dettach/ Remove" style="text;html=1;align=center;verticalAlign=middle;resizable=0;points=[];autosize=1;strokeColor=none;fillColor=none;" parent="1" vertex="1">
          <mxGeometry x="500" y="150" width="110" height="20" as="geometry" />
        </mxCell>
        <mxCell id="W_ZTkigPUNPTzvWaKMQf-16" style="edgeStyle=orthogonalEdgeStyle;rounded=0;orthogonalLoop=1;jettySize=auto;html=1;" parent="1" source="W_ZTkigPUNPTzvWaKMQf-13" target="W_ZTkigPUNPTzvWaKMQf-14" edge="1">
          <mxGeometry relative="1" as="geometry" />
        </mxCell>
        <mxCell id="W_ZTkigPUNPTzvWaKMQf-18" style="edgeStyle=orthogonalEdgeStyle;rounded=0;orthogonalLoop=1;jettySize=auto;html=1;" parent="1" source="W_ZTkigPUNPTzvWaKMQf-13" target="W_ZTkigPUNPTzvWaKMQf-15" edge="1">
          <mxGeometry relative="1" as="geometry">
            <Array as="points">
              <mxPoint x="60" y="520" />
              <mxPoint x="260" y="520" />
            </Array>
          </mxGeometry>
        </mxCell>
        <mxCell id="W_ZTkigPUNPTzvWaKMQf-20" style="edgeStyle=orthogonalEdgeStyle;rounded=0;orthogonalLoop=1;jettySize=auto;html=1;" parent="1" source="W_ZTkigPUNPTzvWaKMQf-13" edge="1">
          <mxGeometry relative="1" as="geometry">
            <mxPoint x="200" y="320" as="targetPoint" />
            <Array as="points">
              <mxPoint x="60" y="330" />
              <mxPoint x="170" y="330" />
            </Array>
          </mxGeometry>
        </mxCell>
        <mxCell id="W_ZTkigPUNPTzvWaKMQf-13" value="Amazon EC2" style="sketch=0;outlineConnect=0;fontColor=#232F3E;gradientColor=none;strokeColor=#ffffff;fillColor=#232F3E;dashed=0;verticalLabelPosition=middle;verticalAlign=bottom;align=center;html=1;whiteSpace=wrap;fontSize=10;fontStyle=1;spacing=3;shape=mxgraph.aws4.productIcon;prIcon=mxgraph.aws4.ec2;" parent="1" vertex="1">
          <mxGeometry x="20" y="370" width="80" height="100" as="geometry" />
        </mxCell>
        <mxCell id="W_ZTkigPUNPTzvWaKMQf-14" value="Amazon S3" style="sketch=0;outlineConnect=0;fontColor=#232F3E;gradientColor=none;strokeColor=#ffffff;fillColor=#232F3E;dashed=0;verticalLabelPosition=middle;verticalAlign=bottom;align=center;html=1;whiteSpace=wrap;fontSize=10;fontStyle=1;spacing=3;shape=mxgraph.aws4.productIcon;prIcon=mxgraph.aws4.s3;" parent="1" vertex="1">
          <mxGeometry x="290" y="370" width="80" height="100" as="geometry" />
        </mxCell>
        <mxCell id="W_ZTkigPUNPTzvWaKMQf-15" value="AWS CodeCommit" style="sketch=0;outlineConnect=0;fontColor=#232F3E;gradientColor=none;strokeColor=#ffffff;fillColor=#232F3E;dashed=0;verticalLabelPosition=middle;verticalAlign=bottom;align=center;html=1;whiteSpace=wrap;fontSize=10;fontStyle=1;spacing=3;shape=mxgraph.aws4.productIcon;prIcon=mxgraph.aws4.codecommit;" parent="1" vertex="1">
          <mxGeometry x="220" y="530" width="80" height="110" as="geometry" />
        </mxCell>
        <mxCell id="W_ZTkigPUNPTzvWaKMQf-17" value="image" style="text;html=1;align=center;verticalAlign=middle;resizable=0;points=[];autosize=1;strokeColor=none;fillColor=none;" parent="1" vertex="1">
          <mxGeometry x="370" y="400" width="50" height="20" as="geometry" />
        </mxCell>
        <mxCell id="W_ZTkigPUNPTzvWaKMQf-19" value="Code" style="text;html=1;align=center;verticalAlign=middle;resizable=0;points=[];autosize=1;strokeColor=none;fillColor=none;" parent="1" vertex="1">
          <mxGeometry x="310" y="560" width="40" height="20" as="geometry" />
        </mxCell>
        <mxCell id="W_ZTkigPUNPTzvWaKMQf-23" style="edgeStyle=orthogonalEdgeStyle;rounded=0;orthogonalLoop=1;jettySize=auto;html=1;entryX=0;entryY=0.5;entryDx=0;entryDy=0;" parent="1" source="W_ZTkigPUNPTzvWaKMQf-21" target="W_ZTkigPUNPTzvWaKMQf-22" edge="1">
          <mxGeometry relative="1" as="geometry" />
        </mxCell>
        <mxCell id="W_ZTkigPUNPTzvWaKMQf-21" value="" style="aspect=fixed;perimeter=ellipsePerimeter;html=1;align=center;shadow=0;dashed=0;spacingTop=3;image;image=img/lib/active_directory/internet_globe.svg;" parent="1" vertex="1">
          <mxGeometry x="200" y="300" width="50" height="50" as="geometry" />
        </mxCell>
        <mxCell id="W_ZTkigPUNPTzvWaKMQf-22" value="" style="aspect=fixed;perimeter=ellipsePerimeter;html=1;align=center;shadow=0;dashed=0;spacingTop=3;image;image=img/lib/active_directory/user_accounts.svg;" parent="1" vertex="1">
          <mxGeometry x="360" y="280" width="50" height="48.5" as="geometry" />
        </mxCell>
        <mxCell id="W_ZTkigPUNPTzvWaKMQf-24" value="IAM Role" style="text;html=1;align=center;verticalAlign=middle;resizable=0;points=[];autosize=1;strokeColor=none;fillColor=none;" parent="1" vertex="1">
          <mxGeometry x="150" y="400" width="60" height="20" as="geometry" />
        </mxCell>
        <mxCell id="W_ZTkigPUNPTzvWaKMQf-25" value="IAM Role" style="text;html=1;align=center;verticalAlign=middle;resizable=0;points=[];autosize=1;strokeColor=none;fillColor=none;" parent="1" vertex="1">
          <mxGeometry x="120" y="500" width="60" height="20" as="geometry" />
        </mxCell>
        <mxCell id="W_ZTkigPUNPTzvWaKMQf-26" value="Policy- Allow" style="text;html=1;align=center;verticalAlign=middle;resizable=0;points=[];autosize=1;strokeColor=none;fillColor=none;" parent="1" vertex="1">
          <mxGeometry x="105" y="520" width="80" height="20" as="geometry" />
        </mxCell>
        <mxCell id="wipIX7ScacwQ_WRAgbHF-1" value="VPC" style="points=[[0,0],[0.25,0],[0.5,0],[0.75,0],[1,0],[1,0.25],[1,0.5],[1,0.75],[1,1],[0.75,1],[0.5,1],[0.25,1],[0,1],[0,0.75],[0,0.5],[0,0.25]];outlineConnect=0;gradientColor=none;html=1;whiteSpace=wrap;fontSize=12;fontStyle=0;container=1;pointerEvents=0;collapsible=0;recursiveResize=0;shape=mxgraph.aws4.group;grIcon=mxgraph.aws4.group_vpc;strokeColor=#248814;fillColor=none;verticalAlign=top;align=left;spacingLeft=30;fontColor=#AAB7B8;dashed=0;" vertex="1" parent="1">
          <mxGeometry x="210" y="890" width="440" height="360" as="geometry" />
        </mxCell>
        <mxCell id="wipIX7ScacwQ_WRAgbHF-7" value="10.0.0.0/24" style="text;html=1;align=center;verticalAlign=middle;resizable=0;points=[];autosize=1;strokeColor=none;fillColor=none;" vertex="1" parent="wipIX7ScacwQ_WRAgbHF-1">
          <mxGeometry x="50" width="80" height="20" as="geometry" />
        </mxCell>
        <mxCell id="wipIX7ScacwQ_WRAgbHF-8" value="Public subnet" style="points=[[0,0],[0.25,0],[0.5,0],[0.75,0],[1,0],[1,0.25],[1,0.5],[1,0.75],[1,1],[0.75,1],[0.5,1],[0.25,1],[0,1],[0,0.75],[0,0.5],[0,0.25]];outlineConnect=0;gradientColor=none;html=1;whiteSpace=wrap;fontSize=12;fontStyle=0;container=1;pointerEvents=0;collapsible=0;recursiveResize=0;shape=mxgraph.aws4.group;grIcon=mxgraph.aws4.group_security_group;grStroke=0;strokeColor=#248814;fillColor=#E9F3E6;verticalAlign=top;align=left;spacingLeft=30;fontColor=#248814;dashed=0;" vertex="1" parent="wipIX7ScacwQ_WRAgbHF-1">
          <mxGeometry x="290" y="110" width="140" height="240" as="geometry" />
        </mxCell>
        <mxCell id="wipIX7ScacwQ_WRAgbHF-11" value="10.0.0.0/25" style="text;html=1;align=center;verticalAlign=middle;resizable=0;points=[];autosize=1;strokeColor=none;fillColor=none;" vertex="1" parent="wipIX7ScacwQ_WRAgbHF-8">
          <mxGeometry x="30" y="20" width="80" height="20" as="geometry" />
        </mxCell>
        <mxCell id="wipIX7ScacwQ_WRAgbHF-24" value="Amazon EC2" style="sketch=0;outlineConnect=0;fontColor=#232F3E;gradientColor=none;strokeColor=#ffffff;fillColor=#232F3E;dashed=0;verticalLabelPosition=middle;verticalAlign=bottom;align=center;html=1;whiteSpace=wrap;fontSize=10;fontStyle=1;spacing=3;shape=mxgraph.aws4.productIcon;prIcon=mxgraph.aws4.ec2;" vertex="1" parent="wipIX7ScacwQ_WRAgbHF-8">
          <mxGeometry x="45" y="80" width="50" height="50" as="geometry" />
        </mxCell>
        <mxCell id="wipIX7ScacwQ_WRAgbHF-10" value="Private subnet" style="points=[[0,0],[0.25,0],[0.5,0],[0.75,0],[1,0],[1,0.25],[1,0.5],[1,0.75],[1,1],[0.75,1],[0.5,1],[0.25,1],[0,1],[0,0.75],[0,0.5],[0,0.25]];outlineConnect=0;gradientColor=none;html=1;whiteSpace=wrap;fontSize=12;fontStyle=0;container=1;pointerEvents=0;collapsible=0;recursiveResize=0;shape=mxgraph.aws4.group;grIcon=mxgraph.aws4.group_security_group;grStroke=0;strokeColor=#147EBA;fillColor=#E6F2F8;verticalAlign=top;align=left;spacingLeft=30;fontColor=#147EBA;dashed=0;" vertex="1" parent="wipIX7ScacwQ_WRAgbHF-1">
          <mxGeometry x="15" y="110" width="150" height="240" as="geometry" />
        </mxCell>
        <mxCell id="wipIX7ScacwQ_WRAgbHF-12" value="10.0.0.128/25" style="text;html=1;align=center;verticalAlign=middle;resizable=0;points=[];autosize=1;strokeColor=none;fillColor=none;" vertex="1" parent="wipIX7ScacwQ_WRAgbHF-10">
          <mxGeometry x="15" y="30" width="90" height="20" as="geometry" />
        </mxCell>
        <mxCell id="wipIX7ScacwQ_WRAgbHF-25" value="Amazon EC2" style="sketch=0;outlineConnect=0;fontColor=#232F3E;gradientColor=none;strokeColor=#ffffff;fillColor=#232F3E;dashed=0;verticalLabelPosition=middle;verticalAlign=bottom;align=center;html=1;whiteSpace=wrap;fontSize=10;fontStyle=1;spacing=3;shape=mxgraph.aws4.productIcon;prIcon=mxgraph.aws4.ec2;" vertex="1" parent="wipIX7ScacwQ_WRAgbHF-10">
          <mxGeometry x="25" y="89.5" width="55" height="61" as="geometry" />
        </mxCell>
        <mxCell id="wipIX7ScacwQ_WRAgbHF-19" value="" style="edgeStyle=orthogonalEdgeStyle;rounded=0;orthogonalLoop=1;jettySize=auto;html=1;" edge="1" parent="wipIX7ScacwQ_WRAgbHF-1" source="wipIX7ScacwQ_WRAgbHF-13" target="wipIX7ScacwQ_WRAgbHF-11">
          <mxGeometry relative="1" as="geometry" />
        </mxCell>
        <mxCell id="wipIX7ScacwQ_WRAgbHF-13" value="" style="outlineConnect=0;dashed=0;verticalLabelPosition=bottom;verticalAlign=top;align=center;html=1;shape=mxgraph.aws3.route_table;fillColor=#F58536;gradientColor=none;" vertex="1" parent="wipIX7ScacwQ_WRAgbHF-1">
          <mxGeometry x="192.5" y="110" width="55" height="40" as="geometry" />
        </mxCell>
        <mxCell id="wipIX7ScacwQ_WRAgbHF-14" value="PublicRT" style="text;html=1;align=center;verticalAlign=middle;resizable=0;points=[];autosize=1;strokeColor=none;fillColor=none;" vertex="1" parent="wipIX7ScacwQ_WRAgbHF-1">
          <mxGeometry x="187.5" y="90" width="60" height="20" as="geometry" />
        </mxCell>
        <mxCell id="wipIX7ScacwQ_WRAgbHF-15" value="" style="outlineConnect=0;dashed=0;verticalLabelPosition=bottom;verticalAlign=top;align=center;html=1;shape=mxgraph.aws3.route_table;fillColor=#F58536;gradientColor=none;" vertex="1" parent="wipIX7ScacwQ_WRAgbHF-1">
          <mxGeometry x="200" y="240" width="60" height="49" as="geometry" />
        </mxCell>
        <mxCell id="wipIX7ScacwQ_WRAgbHF-16" value="PrivateRT" style="text;html=1;align=center;verticalAlign=middle;resizable=0;points=[];autosize=1;strokeColor=none;fillColor=none;" vertex="1" parent="wipIX7ScacwQ_WRAgbHF-1">
          <mxGeometry x="195" y="220" width="70" height="20" as="geometry" />
        </mxCell>
        <mxCell id="wipIX7ScacwQ_WRAgbHF-21" value="" style="sketch=0;outlineConnect=0;fontColor=#232F3E;gradientColor=none;fillColor=#3F8624;strokeColor=none;dashed=0;verticalLabelPosition=bottom;verticalAlign=top;align=center;html=1;fontSize=12;fontStyle=0;aspect=fixed;pointerEvents=1;shape=mxgraph.aws4.iot_device_gateway;" vertex="1" parent="wipIX7ScacwQ_WRAgbHF-1">
          <mxGeometry x="200" y="-19" width="39" height="39" as="geometry" />
        </mxCell>
        <mxCell id="wipIX7ScacwQ_WRAgbHF-23" value="" style="shape=flexArrow;endArrow=classic;startArrow=classic;html=1;rounded=0;width=7;endSize=3.86;" edge="1" parent="wipIX7ScacwQ_WRAgbHF-1" target="wipIX7ScacwQ_WRAgbHF-21">
          <mxGeometry width="100" height="100" relative="1" as="geometry">
            <mxPoint x="220" y="90" as="sourcePoint" />
            <mxPoint x="239" y="30" as="targetPoint" />
          </mxGeometry>
        </mxCell>
        <mxCell id="wipIX7ScacwQ_WRAgbHF-29" style="edgeStyle=orthogonalEdgeStyle;rounded=0;orthogonalLoop=1;jettySize=auto;html=1;entryX=0.329;entryY=0;entryDx=0;entryDy=0;entryPerimeter=0;" edge="1" parent="wipIX7ScacwQ_WRAgbHF-1" source="wipIX7ScacwQ_WRAgbHF-28" target="wipIX7ScacwQ_WRAgbHF-16">
          <mxGeometry relative="1" as="geometry" />
        </mxCell>
        <mxCell id="wipIX7ScacwQ_WRAgbHF-32" style="edgeStyle=orthogonalEdgeStyle;rounded=0;orthogonalLoop=1;jettySize=auto;html=1;" edge="1" parent="wipIX7ScacwQ_WRAgbHF-1" source="wipIX7ScacwQ_WRAgbHF-28" target="wipIX7ScacwQ_WRAgbHF-1">
          <mxGeometry relative="1" as="geometry">
            <Array as="points">
              <mxPoint x="170" y="70" />
              <mxPoint x="170" y="70" />
            </Array>
          </mxGeometry>
        </mxCell>
        <mxCell id="wipIX7ScacwQ_WRAgbHF-28" value="" style="sketch=0;outlineConnect=0;fontColor=#232F3E;gradientColor=none;fillColor=#4D27AA;strokeColor=none;dashed=0;verticalLabelPosition=bottom;verticalAlign=top;align=center;html=1;fontSize=12;fontStyle=0;aspect=fixed;pointerEvents=1;shape=mxgraph.aws4.nat_gateway;" vertex="1" parent="wipIX7ScacwQ_WRAgbHF-1">
          <mxGeometry x="203.5" y="170" width="24" height="24" as="geometry" />
        </mxCell>
        <mxCell id="wipIX7ScacwQ_WRAgbHF-33" style="edgeStyle=orthogonalEdgeStyle;rounded=0;orthogonalLoop=1;jettySize=auto;html=1;" edge="1" parent="wipIX7ScacwQ_WRAgbHF-1" source="wipIX7ScacwQ_WRAgbHF-28" target="wipIX7ScacwQ_WRAgbHF-1">
          <mxGeometry relative="1" as="geometry">
            <mxPoint x="450" y="50" as="targetPoint" />
            <Array as="points" />
          </mxGeometry>
        </mxCell>
        <mxCell id="wipIX7ScacwQ_WRAgbHF-34" style="edgeStyle=orthogonalEdgeStyle;rounded=0;orthogonalLoop=1;jettySize=auto;html=1;" edge="1" parent="wipIX7ScacwQ_WRAgbHF-1" source="wipIX7ScacwQ_WRAgbHF-25" target="wipIX7ScacwQ_WRAgbHF-15">
          <mxGeometry relative="1" as="geometry" />
        </mxCell>
        <mxCell id="wipIX7ScacwQ_WRAgbHF-4" value="1- VPC&lt;br&gt;2- CIDR Block - 10.0.0.0/24&lt;br&gt;3- Subnets&amp;nbsp;&lt;br&gt;4- Route Table - Make route and Associate Subnets&lt;br&gt;5- Internet Gateway -Create and Attach it to VPC&lt;br&gt;6- NAT gateway - Add route to the PrivateRT&amp;nbsp;" style="text;html=1;align=center;verticalAlign=middle;resizable=0;points=[];autosize=1;strokeColor=none;fillColor=none;" vertex="1" parent="1">
          <mxGeometry x="-100" y="1015" width="290" height="90" as="geometry" />
        </mxCell>
        <mxCell id="wipIX7ScacwQ_WRAgbHF-6" value="CIDR&amp;nbsp;&lt;br&gt;32 - 24 = 8&lt;br&gt;2 ^ 8 = 256 IP&amp;nbsp;" style="text;html=1;align=center;verticalAlign=middle;resizable=0;points=[];autosize=1;strokeColor=none;fillColor=none;" vertex="1" parent="1">
          <mxGeometry x="10" y="1130" width="90" height="50" as="geometry" />
        </mxCell>
        <mxCell id="wipIX7ScacwQ_WRAgbHF-35" value="VPC" style="points=[[0,0],[0.25,0],[0.5,0],[0.75,0],[1,0],[1,0.25],[1,0.5],[1,0.75],[1,1],[0.75,1],[0.5,1],[0.25,1],[0,1],[0,0.75],[0,0.5],[0,0.25]];outlineConnect=0;gradientColor=none;html=1;whiteSpace=wrap;fontSize=12;fontStyle=0;container=1;pointerEvents=0;collapsible=0;recursiveResize=0;shape=mxgraph.aws4.group;grIcon=mxgraph.aws4.group_vpc;strokeColor=#248814;fillColor=none;verticalAlign=top;align=left;spacingLeft=30;fontColor=#AAB7B8;dashed=0;" vertex="1" parent="1">
          <mxGeometry x="235" y="1450" width="565" height="290" as="geometry" />
        </mxCell>
        <mxCell id="wipIX7ScacwQ_WRAgbHF-38" value="Public subnet" style="points=[[0,0],[0.25,0],[0.5,0],[0.75,0],[1,0],[1,0.25],[1,0.5],[1,0.75],[1,1],[0.75,1],[0.5,1],[0.25,1],[0,1],[0,0.75],[0,0.5],[0,0.25]];outlineConnect=0;gradientColor=none;html=1;whiteSpace=wrap;fontSize=12;fontStyle=0;container=1;pointerEvents=0;collapsible=0;recursiveResize=0;shape=mxgraph.aws4.group;grIcon=mxgraph.aws4.group_security_group;grStroke=0;strokeColor=#248814;fillColor=#E9F3E6;verticalAlign=top;align=left;spacingLeft=30;fontColor=#248814;dashed=0;" vertex="1" parent="wipIX7ScacwQ_WRAgbHF-35">
          <mxGeometry x="15" y="70" width="505" height="60" as="geometry" />
        </mxCell>
        <mxCell id="wipIX7ScacwQ_WRAgbHF-39" value="Private subnet" style="points=[[0,0],[0.25,0],[0.5,0],[0.75,0],[1,0],[1,0.25],[1,0.5],[1,0.75],[1,1],[0.75,1],[0.5,1],[0.25,1],[0,1],[0,0.75],[0,0.5],[0,0.25]];outlineConnect=0;gradientColor=none;html=1;whiteSpace=wrap;fontSize=12;fontStyle=0;container=1;pointerEvents=0;collapsible=0;recursiveResize=0;shape=mxgraph.aws4.group;grIcon=mxgraph.aws4.group_security_group;grStroke=0;strokeColor=#147EBA;fillColor=#E6F2F8;verticalAlign=top;align=left;spacingLeft=30;fontColor=#147EBA;dashed=0;" vertex="1" parent="wipIX7ScacwQ_WRAgbHF-35">
          <mxGeometry x="10" y="150" width="510" height="60" as="geometry" />
        </mxCell>
        <mxCell id="wipIX7ScacwQ_WRAgbHF-45" value="PrivateSubnet" style="text;html=1;align=center;verticalAlign=middle;resizable=0;points=[];autosize=1;strokeColor=none;fillColor=none;" vertex="1" parent="wipIX7ScacwQ_WRAgbHF-39">
          <mxGeometry x="102.5" y="-10" width="90" height="20" as="geometry" />
        </mxCell>
        <mxCell id="wipIX7ScacwQ_WRAgbHF-43" value="Private subnet" style="points=[[0,0],[0.25,0],[0.5,0],[0.75,0],[1,0],[1,0.25],[1,0.5],[1,0.75],[1,1],[0.75,1],[0.5,1],[0.25,1],[0,1],[0,0.75],[0,0.5],[0,0.25]];outlineConnect=0;gradientColor=none;html=1;whiteSpace=wrap;fontSize=12;fontStyle=0;container=1;pointerEvents=0;collapsible=0;recursiveResize=0;shape=mxgraph.aws4.group;grIcon=mxgraph.aws4.group_security_group;grStroke=0;strokeColor=#147EBA;fillColor=#E6F2F8;verticalAlign=top;align=left;spacingLeft=30;fontColor=#147EBA;dashed=0;" vertex="1" parent="wipIX7ScacwQ_WRAgbHF-35">
          <mxGeometry x="15" y="220" width="515" height="50" as="geometry" />
        </mxCell>
        <mxCell id="wipIX7ScacwQ_WRAgbHF-44" value="Public Subnet" style="text;html=1;align=center;verticalAlign=middle;resizable=0;points=[];autosize=1;strokeColor=none;fillColor=none;" vertex="1" parent="1">
          <mxGeometry x="345" y="1500" width="90" height="20" as="geometry" />
        </mxCell>
        <mxCell id="wipIX7ScacwQ_WRAgbHF-46" value="DatabaseSubnet" style="text;html=1;align=center;verticalAlign=middle;resizable=0;points=[];autosize=1;strokeColor=none;fillColor=none;" vertex="1" parent="1">
          <mxGeometry x="350" y="1660" width="100" height="20" as="geometry" />
        </mxCell>
        <mxCell id="wipIX7ScacwQ_WRAgbHF-48" value="Public subnet" style="points=[[0,0],[0.25,0],[0.5,0],[0.75,0],[1,0],[1,0.25],[1,0.5],[1,0.75],[1,1],[0.75,1],[0.5,1],[0.25,1],[0,1],[0,0.75],[0,0.5],[0,0.25]];outlineConnect=0;gradientColor=none;html=1;whiteSpace=wrap;fontSize=12;fontStyle=0;container=1;pointerEvents=0;collapsible=0;recursiveResize=0;shape=mxgraph.aws4.group;grIcon=mxgraph.aws4.group_security_group;grStroke=0;strokeColor=#248814;fillColor=#E9F3E6;verticalAlign=top;align=left;spacingLeft=30;fontColor=#248814;dashed=0;" vertex="1" parent="1">
          <mxGeometry x="30" y="1790" width="130" height="140" as="geometry" />
        </mxCell>
        <mxCell id="wipIX7ScacwQ_WRAgbHF-52" value="Amazon EC2" style="sketch=0;outlineConnect=0;fontColor=#232F3E;gradientColor=none;strokeColor=#ffffff;fillColor=#232F3E;dashed=0;verticalLabelPosition=middle;verticalAlign=bottom;align=center;html=1;whiteSpace=wrap;fontSize=10;fontStyle=1;spacing=3;shape=mxgraph.aws4.productIcon;prIcon=mxgraph.aws4.ec2;" vertex="1" parent="wipIX7ScacwQ_WRAgbHF-48">
          <mxGeometry x="25" y="30" width="80" height="100" as="geometry" />
        </mxCell>
        <mxCell id="wipIX7ScacwQ_WRAgbHF-49" value="Public subnet" style="points=[[0,0],[0.25,0],[0.5,0],[0.75,0],[1,0],[1,0.25],[1,0.5],[1,0.75],[1,1],[0.75,1],[0.5,1],[0.25,1],[0,1],[0,0.75],[0,0.5],[0,0.25]];outlineConnect=0;gradientColor=none;html=1;whiteSpace=wrap;fontSize=12;fontStyle=0;container=1;pointerEvents=0;collapsible=0;recursiveResize=0;shape=mxgraph.aws4.group;grIcon=mxgraph.aws4.group_security_group;grStroke=0;strokeColor=#248814;fillColor=#E9F3E6;verticalAlign=top;align=left;spacingLeft=30;fontColor=#248814;dashed=0;" vertex="1" parent="1">
          <mxGeometry x="230" y="1790" width="130" height="130" as="geometry" />
        </mxCell>
        <mxCell id="wipIX7ScacwQ_WRAgbHF-53" value="Amazon EC2" style="sketch=0;outlineConnect=0;fontColor=#232F3E;gradientColor=none;strokeColor=#ffffff;fillColor=#232F3E;dashed=0;verticalLabelPosition=middle;verticalAlign=bottom;align=center;html=1;whiteSpace=wrap;fontSize=10;fontStyle=1;spacing=3;shape=mxgraph.aws4.productIcon;prIcon=mxgraph.aws4.ec2;" vertex="1" parent="wipIX7ScacwQ_WRAgbHF-49">
          <mxGeometry x="25" y="30" width="80" height="100" as="geometry" />
        </mxCell>
        <mxCell id="wipIX7ScacwQ_WRAgbHF-50" value="us-east-1" style="text;html=1;align=center;verticalAlign=middle;resizable=0;points=[];autosize=1;strokeColor=none;fillColor=none;" vertex="1" parent="1">
          <mxGeometry x="60" y="1770" width="70" height="20" as="geometry" />
        </mxCell>
        <mxCell id="wipIX7ScacwQ_WRAgbHF-51" value="us-east-2" style="text;html=1;align=center;verticalAlign=middle;resizable=0;points=[];autosize=1;strokeColor=none;fillColor=none;" vertex="1" parent="1">
          <mxGeometry x="260" y="1770" width="70" height="20" as="geometry" />
        </mxCell>
      </root>
    </mxGraphModel>
  </diagram>
  <diagram id="esrK-UXZWxzlQ65p4LlX" name="Page-2">
    <mxGraphModel dx="1958" dy="418" grid="1" gridSize="10" guides="1" tooltips="1" connect="1" arrows="1" fold="1" page="1" pageScale="1" pageWidth="850" pageHeight="1100" math="0" shadow="0">
      <root>
        <mxCell id="0" />
        <mxCell id="1" parent="0" />
        <mxCell id="MDMNqc7sI_AqKMxXuscy-1" value="SDLC" style="text;html=1;align=center;verticalAlign=middle;resizable=0;points=[];autosize=1;strokeColor=none;fillColor=none;" vertex="1" parent="1">
          <mxGeometry x="120" y="10" width="50" height="20" as="geometry" />
        </mxCell>
        <mxCell id="MDMNqc7sI_AqKMxXuscy-2" value="" style="outlineConnect=0;dashed=0;verticalLabelPosition=bottom;verticalAlign=top;align=center;html=1;shape=mxgraph.aws3.office_building;fillColor=#7D7C7C;gradientColor=none;" vertex="1" parent="1">
          <mxGeometry x="90" y="100" width="120" height="250" as="geometry" />
        </mxCell>
        <mxCell id="MDMNqc7sI_AqKMxXuscy-3" value="OLA" style="text;html=1;align=center;verticalAlign=middle;resizable=0;points=[];autosize=1;strokeColor=none;fillColor=none;" vertex="1" parent="1">
          <mxGeometry x="130" y="80" width="40" height="20" as="geometry" />
        </mxCell>
        <mxCell id="MDMNqc7sI_AqKMxXuscy-5" value="Taxi service" style="text;html=1;align=center;verticalAlign=middle;resizable=0;points=[];autosize=1;strokeColor=none;fillColor=none;" vertex="1" parent="1">
          <mxGeometry x="220" y="80" width="80" height="20" as="geometry" />
        </mxCell>
        <mxCell id="MDMNqc7sI_AqKMxXuscy-6" value="www.ola.com" style="text;html=1;align=center;verticalAlign=middle;resizable=0;points=[];autosize=1;strokeColor=none;fillColor=none;" vertex="1" parent="1">
          <mxGeometry x="215" y="100" width="90" height="20" as="geometry" />
        </mxCell>
        <mxCell id="MDMNqc7sI_AqKMxXuscy-10" style="edgeStyle=orthogonalEdgeStyle;rounded=0;orthogonalLoop=1;jettySize=auto;html=1;entryX=0.393;entryY=-0.1;entryDx=0;entryDy=0;entryPerimeter=0;" edge="1" parent="1" source="MDMNqc7sI_AqKMxXuscy-7" target="MDMNqc7sI_AqKMxXuscy-8">
          <mxGeometry relative="1" as="geometry" />
        </mxCell>
        <mxCell id="MDMNqc7sI_AqKMxXuscy-7" value="Dev - Code" style="text;html=1;align=center;verticalAlign=middle;resizable=0;points=[];autosize=1;strokeColor=none;fillColor=none;" vertex="1" parent="1">
          <mxGeometry x="225" y="140" width="80" height="20" as="geometry" />
        </mxCell>
        <mxCell id="MDMNqc7sI_AqKMxXuscy-11" value="" style="edgeStyle=orthogonalEdgeStyle;rounded=0;orthogonalLoop=1;jettySize=auto;html=1;" edge="1" parent="1" source="MDMNqc7sI_AqKMxXuscy-8" target="MDMNqc7sI_AqKMxXuscy-9">
          <mxGeometry relative="1" as="geometry" />
        </mxCell>
        <mxCell id="MDMNqc7sI_AqKMxXuscy-8" value="Ops Team - Operations" style="text;html=1;align=center;verticalAlign=middle;resizable=0;points=[];autosize=1;strokeColor=none;fillColor=none;" vertex="1" parent="1">
          <mxGeometry x="210" y="200" width="140" height="20" as="geometry" />
        </mxCell>
        <mxCell id="MDMNqc7sI_AqKMxXuscy-24" style="edgeStyle=orthogonalEdgeStyle;rounded=0;orthogonalLoop=1;jettySize=auto;html=1;" edge="1" parent="1" source="MDMNqc7sI_AqKMxXuscy-9" target="MDMNqc7sI_AqKMxXuscy-13">
          <mxGeometry relative="1" as="geometry" />
        </mxCell>
        <mxCell id="MDMNqc7sI_AqKMxXuscy-9" value="IT team - Networking&amp;nbsp;" style="text;html=1;align=center;verticalAlign=middle;resizable=0;points=[];autosize=1;strokeColor=none;fillColor=none;" vertex="1" parent="1">
          <mxGeometry x="215" y="260" width="130" height="20" as="geometry" />
        </mxCell>
        <mxCell id="MDMNqc7sI_AqKMxXuscy-12" value="" style="shape=mxgraph.cisco.computers_and_peripherals.ibm_mini_as400;html=1;pointerEvents=1;dashed=0;fillColor=#036897;strokeColor=#ffffff;strokeWidth=2;verticalLabelPosition=bottom;verticalAlign=top;align=center;outlineConnect=0;" vertex="1" parent="1">
          <mxGeometry x="90" y="288" width="43" height="62" as="geometry" />
        </mxCell>
        <mxCell id="MDMNqc7sI_AqKMxXuscy-17" style="edgeStyle=orthogonalEdgeStyle;rounded=0;orthogonalLoop=1;jettySize=auto;html=1;" edge="1" parent="1" source="MDMNqc7sI_AqKMxXuscy-13" target="MDMNqc7sI_AqKMxXuscy-16">
          <mxGeometry relative="1" as="geometry" />
        </mxCell>
        <mxCell id="MDMNqc7sI_AqKMxXuscy-13" value="" style="shape=mxgraph.cisco.computers_and_peripherals.ibm_tower;html=1;pointerEvents=1;dashed=0;fillColor=#036897;strokeColor=#ffffff;strokeWidth=2;verticalLabelPosition=bottom;verticalAlign=top;align=center;outlineConnect=0;" vertex="1" parent="1">
          <mxGeometry x="140" y="288" width="30" height="57" as="geometry" />
        </mxCell>
        <mxCell id="MDMNqc7sI_AqKMxXuscy-14" value="" style="shape=mxgraph.cisco.computers_and_peripherals.ibm_mainframe;html=1;pointerEvents=1;dashed=0;fillColor=#036897;strokeColor=#ffffff;strokeWidth=2;verticalLabelPosition=bottom;verticalAlign=top;align=center;outlineConnect=0;" vertex="1" parent="1">
          <mxGeometry x="100" y="210" width="40" height="60" as="geometry" />
        </mxCell>
        <mxCell id="MDMNqc7sI_AqKMxXuscy-15" value="" style="html=1;verticalLabelPosition=bottom;align=center;labelBackgroundColor=#ffffff;verticalAlign=top;strokeWidth=2;strokeColor=#0080F0;shadow=0;dashed=0;shape=mxgraph.ios7.icons.user;" vertex="1" parent="1">
          <mxGeometry x="750" y="225" width="30" height="30" as="geometry" />
        </mxCell>
        <mxCell id="MDMNqc7sI_AqKMxXuscy-18" style="edgeStyle=orthogonalEdgeStyle;rounded=0;orthogonalLoop=1;jettySize=auto;html=1;entryX=0;entryY=0.833;entryDx=0;entryDy=0;entryPerimeter=0;" edge="1" parent="1" source="MDMNqc7sI_AqKMxXuscy-16" target="MDMNqc7sI_AqKMxXuscy-15">
          <mxGeometry relative="1" as="geometry" />
        </mxCell>
        <mxCell id="MDMNqc7sI_AqKMxXuscy-16" value="" style="aspect=fixed;perimeter=ellipsePerimeter;html=1;align=center;shadow=0;dashed=0;spacingTop=3;image;image=img/lib/active_directory/internet_globe.svg;" vertex="1" parent="1">
          <mxGeometry x="490" y="230" width="50" height="50" as="geometry" />
        </mxCell>
        <mxCell id="MDMNqc7sI_AqKMxXuscy-19" value="www.ola.com" style="text;html=1;align=center;verticalAlign=middle;resizable=0;points=[];autosize=1;strokeColor=none;fillColor=none;" vertex="1" parent="1">
          <mxGeometry x="620" y="225" width="90" height="20" as="geometry" />
        </mxCell>
        <mxCell id="MDMNqc7sI_AqKMxXuscy-20" value="100 User" style="text;html=1;align=center;verticalAlign=middle;resizable=0;points=[];autosize=1;strokeColor=none;fillColor=none;" vertex="1" parent="1">
          <mxGeometry x="735" y="190" width="60" height="20" as="geometry" />
        </mxCell>
        <mxCell id="MDMNqc7sI_AqKMxXuscy-25" style="edgeStyle=orthogonalEdgeStyle;rounded=0;orthogonalLoop=1;jettySize=auto;html=1;" edge="1" parent="1" source="MDMNqc7sI_AqKMxXuscy-21">
          <mxGeometry relative="1" as="geometry">
            <mxPoint x="770" y="330" as="targetPoint" />
          </mxGeometry>
        </mxCell>
        <mxCell id="MDMNqc7sI_AqKMxXuscy-21" value="1000 user" style="text;html=1;align=center;verticalAlign=middle;resizable=0;points=[];autosize=1;strokeColor=none;fillColor=none;" vertex="1" parent="1">
          <mxGeometry x="735" y="270" width="70" height="20" as="geometry" />
        </mxCell>
        <mxCell id="MDMNqc7sI_AqKMxXuscy-22" value="" style="points=[];aspect=fixed;html=1;align=center;shadow=0;dashed=0;image;image=img/lib/allied_telesis/computer_and_terminals/Server_Desktop.svg;" vertex="1" parent="1">
          <mxGeometry x="150" y="206" width="38.66" height="49" as="geometry" />
        </mxCell>
        <mxCell id="MDMNqc7sI_AqKMxXuscy-27" value="10 User" style="text;html=1;align=center;verticalAlign=middle;resizable=0;points=[];autosize=1;strokeColor=none;fillColor=none;" vertex="1" parent="1">
          <mxGeometry x="735" y="340" width="60" height="20" as="geometry" />
        </mxCell>
        <mxCell id="MDMNqc7sI_AqKMxXuscy-28" value="Net profit - 70 % Infra management&amp;nbsp;" style="text;html=1;align=center;verticalAlign=middle;resizable=0;points=[];autosize=1;strokeColor=none;fillColor=none;" vertex="1" parent="1">
          <mxGeometry x="60" y="380" width="210" height="20" as="geometry" />
        </mxCell>
        <mxCell id="MDMNqc7sI_AqKMxXuscy-42" style="edgeStyle=orthogonalEdgeStyle;rounded=0;orthogonalLoop=1;jettySize=auto;html=1;entryX=0.5;entryY=0;entryDx=0;entryDy=0;" edge="1" parent="1" source="MDMNqc7sI_AqKMxXuscy-29" target="MDMNqc7sI_AqKMxXuscy-39">
          <mxGeometry relative="1" as="geometry" />
        </mxCell>
        <mxCell id="MDMNqc7sI_AqKMxXuscy-29" value="" style="ellipse;shape=cloud;whiteSpace=wrap;html=1;" vertex="1" parent="1">
          <mxGeometry x="130" y="490" width="560" height="260" as="geometry" />
        </mxCell>
        <mxCell id="MDMNqc7sI_AqKMxXuscy-31" value="" style="sketch=0;aspect=fixed;html=1;points=[];align=center;image;fontSize=12;image=img/lib/mscae/OS_Images_Classic.svg;" vertex="1" parent="1">
          <mxGeometry x="220" y="580" width="50" height="46" as="geometry" />
        </mxCell>
        <mxCell id="MDMNqc7sI_AqKMxXuscy-32" value="Hardware&lt;br&gt;Software&lt;br&gt;Networking&lt;br&gt;Domain&amp;nbsp;&lt;br&gt;OS&lt;br&gt;Database" style="text;html=1;align=center;verticalAlign=middle;resizable=0;points=[];autosize=1;strokeColor=none;fillColor=none;" vertex="1" parent="1">
          <mxGeometry x="10" y="580" width="80" height="90" as="geometry" />
        </mxCell>
        <mxCell id="MDMNqc7sI_AqKMxXuscy-33" value="" style="aspect=fixed;html=1;points=[];align=center;image;fontSize=12;image=img/lib/azure2/networking/Application_Gateways.svg;" vertex="1" parent="1">
          <mxGeometry x="396" y="550" width="64" height="64" as="geometry" />
        </mxCell>
        <mxCell id="MDMNqc7sI_AqKMxXuscy-34" value="" style="image;html=1;image=img/lib/clip_art/computers/Database_Minus_128x128.png" vertex="1" parent="1">
          <mxGeometry x="530" y="550" width="80" height="80" as="geometry" />
        </mxCell>
        <mxCell id="MDMNqc7sI_AqKMxXuscy-36" value="" style="outlineConnect=0;dashed=0;verticalLabelPosition=bottom;verticalAlign=top;align=center;html=1;shape=mxgraph.aws3.android;fillColor=#FFD44F;gradientColor=none;" vertex="1" parent="1">
          <mxGeometry x="440" y="650" width="40" height="47" as="geometry" />
        </mxCell>
        <mxCell id="MDMNqc7sI_AqKMxXuscy-37" value="" style="aspect=fixed;html=1;points=[];align=center;image;fontSize=12;image=img/lib/azure2/networking/DNS_Zones.svg;" vertex="1" parent="1">
          <mxGeometry x="318.13" y="630" width="60" height="60" as="geometry" />
        </mxCell>
        <mxCell id="MDMNqc7sI_AqKMxXuscy-38" value="desktop" style="sketch=0;outlineConnect=0;gradientColor=none;fontColor=#545B64;strokeColor=none;fillColor=#879196;dashed=0;verticalLabelPosition=bottom;verticalAlign=top;align=center;html=1;fontSize=12;fontStyle=0;aspect=fixed;shape=mxgraph.aws4.illustration_desktop;pointerEvents=1" vertex="1" parent="1">
          <mxGeometry x="330" y="547" width="36.26" height="33" as="geometry" />
        </mxCell>
        <mxCell id="MDMNqc7sI_AqKMxXuscy-39" value="www.aws.com" style="whiteSpace=wrap;html=1;" vertex="1" parent="1">
          <mxGeometry x="350" y="810" width="120" height="60" as="geometry" />
        </mxCell>
        <mxCell id="MDMNqc7sI_AqKMxXuscy-45" style="edgeStyle=orthogonalEdgeStyle;rounded=0;orthogonalLoop=1;jettySize=auto;html=1;" edge="1" parent="1" source="MDMNqc7sI_AqKMxXuscy-43" target="MDMNqc7sI_AqKMxXuscy-44">
          <mxGeometry relative="1" as="geometry" />
        </mxCell>
        <mxCell id="MDMNqc7sI_AqKMxXuscy-43" value="" style="verticalLabelPosition=bottom;shadow=0;dashed=0;align=center;html=1;verticalAlign=top;strokeWidth=1;shape=mxgraph.mockup.containers.userMale;strokeColor=#666666;strokeColor2=#008cff;" vertex="1" parent="1">
          <mxGeometry x="715" y="790" width="100" height="100" as="geometry" />
        </mxCell>
        <mxCell id="MDMNqc7sI_AqKMxXuscy-47" style="edgeStyle=orthogonalEdgeStyle;rounded=0;orthogonalLoop=1;jettySize=auto;html=1;entryX=1;entryY=0.5;entryDx=0;entryDy=0;" edge="1" parent="1" source="MDMNqc7sI_AqKMxXuscy-44" target="MDMNqc7sI_AqKMxXuscy-39">
          <mxGeometry relative="1" as="geometry" />
        </mxCell>
        <mxCell id="MDMNqc7sI_AqKMxXuscy-44" value="" style="image;html=1;image=img/lib/clip_art/computers/Laptop_128x128.png" vertex="1" parent="1">
          <mxGeometry x="580" y="800" width="80" height="80" as="geometry" />
        </mxCell>
        <mxCell id="MDMNqc7sI_AqKMxXuscy-46" value="www.aws.com" style="text;html=1;align=center;verticalAlign=middle;resizable=0;points=[];autosize=1;strokeColor=none;fillColor=none;" vertex="1" parent="1">
          <mxGeometry x="630" y="810" width="90" height="20" as="geometry" />
        </mxCell>
        <mxCell id="MDMNqc7sI_AqKMxXuscy-48" value="Internet" style="text;html=1;align=center;verticalAlign=middle;resizable=0;points=[];autosize=1;strokeColor=none;fillColor=none;" vertex="1" parent="1">
          <mxGeometry x="500" y="810" width="60" height="20" as="geometry" />
        </mxCell>
        <mxCell id="MDMNqc7sI_AqKMxXuscy-49" value="1- cloud provider - Azure, GCP, AWS, IBM, Alibaba, Tencent, HP,&lt;br&gt;- AWS started building cloud in 2004&lt;br&gt;- 67 % of cloud market is coverd by aws 2020&lt;br&gt;- 37 % AWS in 2022&lt;br&gt;- Cost Less" style="text;html=1;align=center;verticalAlign=middle;resizable=0;points=[];autosize=1;strokeColor=none;fillColor=none;" vertex="1" parent="1">
          <mxGeometry x="-150" y="690" width="360" height="80" as="geometry" />
        </mxCell>
        <mxCell id="MDMNqc7sI_AqKMxXuscy-50" value="Duration :- 130 Minutes&lt;br&gt;Fees - 150 USD 177 USD&amp;nbsp;&lt;br&gt;Exp - 3 Year&lt;br&gt;Question type - Multiple choice&amp;nbsp;&lt;br&gt;No refund&amp;nbsp;" style="text;html=1;align=center;verticalAlign=middle;resizable=0;points=[];autosize=1;strokeColor=none;fillColor=none;" vertex="1" parent="1">
          <mxGeometry x="-60" y="800" width="180" height="80" as="geometry" />
        </mxCell>
        <mxCell id="MDMNqc7sI_AqKMxXuscy-51" value="Why Certified aws ?" style="text;html=1;align=center;verticalAlign=middle;resizable=0;points=[];autosize=1;strokeColor=none;fillColor=none;" vertex="1" parent="1">
          <mxGeometry x="-30" y="910" width="120" height="20" as="geometry" />
        </mxCell>
        <mxCell id="MDMNqc7sI_AqKMxXuscy-52" value="Public Cloud&lt;br&gt;-Open for Public&lt;br&gt;-Google photos, Dropbox, Drive&lt;br&gt;-Cheap&lt;br&gt;- Easy to use&lt;br&gt;- Easy to access&lt;br&gt;- Not much secure" style="ellipse;shape=cloud;whiteSpace=wrap;html=1;" vertex="1" parent="1">
          <mxGeometry x="100" y="945" width="210" height="270" as="geometry" />
        </mxCell>
        <mxCell id="MDMNqc7sI_AqKMxXuscy-53" value="Private cloud&lt;br&gt;-Open for specific Org. Companies&lt;br&gt;- Adhar card data, Income Tax data&amp;nbsp;&lt;br&gt;- Costly&amp;nbsp;&lt;br&gt;- Hard maintain&amp;nbsp;&lt;br&gt;- More secure&amp;nbsp;" style="ellipse;shape=cloud;whiteSpace=wrap;html=1;" vertex="1" parent="1">
          <mxGeometry x="445" y="920" width="270" height="320" as="geometry" />
        </mxCell>
        <mxCell id="MDMNqc7sI_AqKMxXuscy-56" value="Hybrid cloud&lt;br&gt;- Compute, Server&amp;nbsp;&lt;br&gt;- Database&amp;nbsp;&lt;br&gt;- It&#39;s more secure&amp;nbsp;" style="ellipse;shape=cloud;whiteSpace=wrap;html=1;" vertex="1" parent="1">
          <mxGeometry x="230" y="940" width="280" height="250" as="geometry" />
        </mxCell>
        <mxCell id="MDMNqc7sI_AqKMxXuscy-57" value="AWS as cloud provider -&amp;nbsp;&lt;br&gt;1- IaaS - Infrastracture as a service&amp;nbsp;&lt;br&gt;2- PaaS - Platform as a service&amp;nbsp;&lt;br&gt;3- SaaS- Software as a service&amp;nbsp;" style="text;html=1;align=center;verticalAlign=middle;resizable=0;points=[];autosize=1;strokeColor=none;fillColor=none;" vertex="1" parent="1">
          <mxGeometry x="-150" y="1270" width="210" height="60" as="geometry" />
        </mxCell>
        <mxCell id="MDMNqc7sI_AqKMxXuscy-58" value="Compute&lt;br&gt;Storage&lt;br&gt;Networking&lt;br&gt;Security&amp;nbsp;&lt;br&gt;Database" style="text;html=1;align=center;verticalAlign=middle;resizable=0;points=[];autosize=1;strokeColor=none;fillColor=none;" vertex="1" parent="1">
          <mxGeometry x="-140" y="1380" width="80" height="80" as="geometry" />
        </mxCell>
      </root>
    </mxGraphModel>
  </diagram>
</mxfile>
